# This file uses centimeters as units for non-parametric coordinates.

mtllib Supergod_enermy1.mtl
g default
v -1.334654 -0.500000 1.674112
v 0.000000 -0.500000 3.021890
v 1.334654 -0.500000 1.674112
v -1.334654 0.000000 1.674112
v 0.000000 0.000000 3.083985
v 1.334654 0.000000 1.674112
v -1.722195 0.500000 1.165587
v 0.000000 0.500000 2.123192
v 1.722195 0.500000 1.165587
v -2.594364 0.500000 -1.738026
v 0.000000 1.165289 0.000000
v 2.594364 0.500000 -1.738026
v -4.818434 0.757188 -4.960750
v 0.000000 1.779310 -1.247054
v 4.818434 0.757188 -4.960750
v -4.744165 -0.500000 -6.151601
v 0.000000 -0.279887 -1.068723
v 4.744165 -0.500000 -6.151601
v -2.232992 -0.500000 0.000000
v 0.000000 -0.279887 0.000000
v 2.232992 -0.500000 0.000000
v -0.893777 1.310669 -3.753372
v 0.000000 2.025947 -3.454573
v -0.000000 -0.000000 -3.929052
v -0.847224 0.023222 -4.659390
v 0.893777 1.310669 -3.753372
v 0.847224 0.023222 -4.659390
v 0.000000 -0.196220 -3.617278
v -0.998028 -0.407173 -3.883116
v 0.998028 -0.407173 -3.883116
v -6.792426 0.186704 -8.901740
v -6.471502 -0.000000 -9.873878
v -3.767014 0.791830 -5.145401
v -4.681276 0.023222 -6.773185
v -6.792426 -0.186704 -8.901740
v -3.756386 -0.407173 -5.663382
v 6.792426 0.186704 -8.901740
v 6.471502 -0.000000 -9.873878
v 4.681276 0.023222 -6.773185
v 3.767014 0.791830 -5.145401
v 6.792426 -0.186704 -8.901740
v 3.756386 -0.407173 -5.663382
v -2.650237 0.791830 -5.882711
v -2.650237 0.023222 -5.882712
v -3.512090 0.023222 -9.764427
v -3.189758 0.791830 -8.322430
v -3.067673 -0.407173 -5.573979
v -3.477085 -0.407173 -8.601700
v 2.650237 0.791830 -5.882711
v 2.650237 0.023222 -5.882712
v 3.189758 0.791830 -8.322430
v 3.512090 0.023222 -9.764427
v 3.067673 -0.407173 -5.573979
v 3.477085 -0.407173 -8.601700
v -0.837443 0.156547 -5.498779
v 0.000000 0.686810 -5.038982
v 0.000000 -0.340400 -5.544714
v -0.837443 -0.325826 -5.498779
v 0.837443 0.156547 -5.498779
v 0.837443 -0.325826 -5.498779
v 4.934414 -0.903141 -5.882459
v 2.536293 -0.626005 0.431509
v 6.120663 0.208332 -5.369844
v 4.243962 -0.005024 -1.266189
v 1.737554 -0.343230 1.712613
v 1.669856 0.265004 1.589867
v 5.058481 0.627421 -4.662570
v 2.826625 0.419090 -1.357608
v 1.989698 0.390745 0.958597
v 7.351698 0.009822 -8.625203
v 7.075501 0.207615 -8.667821
v 6.969223 -0.670463 -8.582585
v -4.934414 -0.903141 -5.882459
v -2.536293 -0.626005 0.431509
v -4.243962 -0.005024 -1.266189
v -6.120663 0.208332 -5.369844
v -1.737554 -0.343230 1.712613
v -1.669856 0.265004 1.589867
v -2.826626 0.419090 -1.357608
v -5.058481 0.627421 -4.662570
v -1.989698 0.390745 0.958597
v -7.075501 0.207615 -8.667821
v -7.351698 0.009822 -8.625203
v -6.969223 -0.670463 -8.582585
v 6.755659 0.260655 -9.942287
v 6.468216 -0.072875 -11.007216
v 7.038735 0.267996 -9.708368
v 7.348412 -0.069427 -9.758542
v 6.822619 -0.406406 -10.127871
v 6.999417 -0.576222 -9.808716
v -6.755660 0.260655 -9.942287
v -6.468217 -0.072875 -11.007216
v -7.348413 -0.069427 -9.758542
v -7.038736 0.267996 -9.708368
v -6.822620 -0.406406 -10.127871
v -6.999418 -0.576222 -9.808716
v -0.795455 0.241827 -2.715872
v 0.000000 0.070200 -2.687242
v 0.795455 0.241827 -2.715872
v -1.329441 0.360449 -3.102018
v 0.000000 0.292924 -3.090754
v 1.329441 0.360449 -3.102018
v -1.277326 0.786109 -3.173025
v 0.000000 1.796761 -2.821808
v 1.277326 0.786109 -3.173025
v -1.277326 0.467468 -5.083170
v 0.000000 -0.530942 -10.157350
v 1.277326 0.467468 -5.083170
v -1.329441 -0.451783 -7.971071
v 0.000000 -1.887984 -11.738159
v 1.329441 -0.451783 -7.971071
v -0.795455 -0.840866 -7.906166
v 0.000000 -2.736980 -12.692928
v 0.795455 -0.840866 -7.906166
v 4.666171 0.789487 -4.843397
v 4.755135 0.749868 -4.869029
vt 0.084043 0.831316
vt 0.120358 0.831316
vt 0.137332 0.881762
vt 0.137332 0.780869
vt 0.368590 0.879806
vt 0.387489 0.829360
vt 0.387489 0.894454
vt 0.412825 0.894454
vt 0.393926 0.844008
vt 0.412825 0.829360
vt 0.001992 0.279692
vt 0.082243 0.279692
vt 0.038187 0.344786
vt 0.038187 0.214598
vt 0.147935 0.377752
vt 0.147935 0.181632
vt 0.129378 0.279692
vt 0.133557 0.386531
vt 0.133557 0.172853
vt 0.269745 0.461815
vt 0.258475 0.470889
vt 0.046010 0.354897
vt 0.046010 0.204487
vt 0.258475 0.088495
vt 0.265310 0.103324
vt 0.212816 0.279692
vt 0.130101 0.440102
vt 0.022150 0.342808
vt 0.022150 0.216576
vt 0.130101 0.119282
vt 0.266279 0.099961
vt 0.409863 0.547126
vt 0.285208 0.511036
vt 0.018966 0.330138
vt 0.018966 0.229246
vt 0.285208 0.048348
vt 0.269745 0.097569
vt 0.418704 0.536427
vt 0.409863 0.012258
vt 0.224110 0.245910
vt 0.449192 0.545737
vt 0.276725 0.422075
vt 0.408252 0.557566
vt 0.408252 0.001818
vt 0.418704 0.022957
vt 0.276725 0.137309
vt 0.458034 0.535037
vt 0.224110 0.313474
vt 0.449192 0.013647
vt 0.304593 0.179520
vt 0.455448 0.524297
vt 0.451089 0.557442
vt 0.304593 0.379864
vt 0.451089 0.001942
vt 0.458034 0.024347
vt 0.396808 0.159128
vt 0.338251 0.456631
vt 0.498285 0.524173
vt 0.396808 0.400256
vt 0.455448 0.035087
vt 0.338251 0.102753
vt 0.498285 0.035211
vt 0.451311 0.146945
vt 0.451311 0.412439
vt 0.745915 0.792984
vt 0.784741 0.792984
vt 0.765957 0.824637
vt 0.765957 0.761331
vt 0.784190 0.824637
vt 0.722335 0.826766
vt 0.722335 0.759201
vt 0.784190 0.761331
vt 0.695299 0.792984
vt 0.743255 0.975107
vt 0.742034 0.616615
vt 0.697973 0.297258
vt 0.725578 0.265235
vt 0.727314 0.302958
vt 0.664510 0.265235
vt 0.737362 0.265235
vt 0.663404 0.381185
vt 0.666246 0.296888
vt 0.697973 0.233213
vt 0.727314 0.227513
vt 0.833690 0.265235
vt 0.660025 0.407216
vt 0.651735 0.365407
vt 0.666246 0.233582
vt 0.641572 0.444552
vt 0.548965 0.396660
vt 0.663404 0.149286
vt 0.641572 0.085919
vt 0.874085 0.349636
vt 0.537624 0.521970
vt 0.618077 0.442175
vt 0.651735 0.165064
vt 0.660025 0.123254
vt 0.874085 0.180834
vt 0.874085 0.265235
vt 0.651744 0.451743
vt 0.549687 0.528653
vt 0.505017 0.397983
vt 0.548965 0.133811
vt 0.651744 0.078728
vt 0.537624 0.008500
vt 0.937362 0.315682
vt 0.890395 0.361100
vt 0.618077 0.088296
vt 0.549687 0.001818
vt 0.890395 0.169371
vt 0.937362 0.214789
vt 0.988304 0.265235
vt 0.826227 0.425645
vt 0.671120 0.496580
vt 0.505017 0.132488
vt 0.671120 0.033891
vt 0.826227 0.104825
vt 0.938817 0.330910
vt 0.938817 0.199561
vt 0.012680 0.876463
vt 0.001992 0.828040
vt 0.035670 0.871823
vt 0.025463 0.763872
vt 0.053803 0.764274
vt 0.076793 0.768913
vt 0.043115 0.812696
vt 0.066586 0.876864
vt 0.294817 0.688365
vt 0.362483 0.805563
vt 0.282687 0.725109
vt 0.281546 0.678765
vt 0.274863 0.690828
vt 0.294941 0.645528
vt 0.261672 0.692725
vt 0.222392 0.688365
vt 0.234522 0.725109
vt 0.154727 0.805563
vt 0.235663 0.678765
vt 0.222268 0.645528
vt 0.242346 0.690828
vt 0.255537 0.692725
vt 0.669553 0.763333
vt 0.640502 0.763333
vt 0.669553 0.671119
vt 0.640502 0.809572
vt 0.640502 0.616615
vt 0.689164 0.843817
vt 0.624234 0.660563
vt 0.407969 0.766961
vt 0.441185 0.645528
vt 0.433682 0.768572
vt 0.411531 0.813305
vt 0.430687 0.811409
vt 0.417950 0.825369
vt 0.598488 0.697098
vt 0.598488 0.789313
vt 0.569437 0.697098
vt 0.569437 0.843817
vt 0.569437 0.650860
vt 0.553169 0.799869
vt 0.618099 0.616615
vt 0.401834 0.825369
vt 0.368618 0.703936
vt 0.394331 0.702325
vt 0.372180 0.657592
vt 0.391335 0.659488
vt 0.378599 0.645528
vt 0.294018 0.809554
vt 0.250396 0.875526
vt 0.245356 0.843799
vt 0.232163 0.875526
vt 0.362232 0.875526
vt 0.313570 0.841281
vt 0.318609 0.809554
vt 0.300377 0.809554
vt 0.119676 0.660757
vt 0.125602 0.645528
vt 0.138575 0.660757
vt 0.148591 0.648087
vt 0.119676 0.711203
vt 0.138575 0.711203
vt 0.138575 0.761649
vt 0.119676 0.761649
vt 0.125602 0.776878
vt 0.148591 0.774319
vt 0.419263 0.829360
vt 0.437547 0.841423
vt 0.422825 0.875704
vt 0.444599 0.879901
vt 0.448161 0.833556
vt 0.462884 0.867838
vt 0.144460 0.859804
vt 0.159712 0.859804
vt 0.145543 0.889870
vt 0.145543 0.829738
vt 0.160138 0.910053
vt 0.160138 0.809554
vt 0.170400 0.910053
vt 0.167848 0.859804
vt 0.186489 0.908083
vt 0.224689 0.859804
vt 0.186489 0.811524
vt 0.170400 0.809554
vt 0.792846 0.702089
vt 0.841125 0.616615
vt 0.841125 0.893878
vt 0.792846 0.629890
vt 0.889404 0.702089
vt 0.790876 0.811243
vt 0.889404 0.629890
vt 0.891374 0.811243
vt 0.841125 0.953629
vt 0.841125 0.989716
vt 0.917693 0.797542
vt 0.947759 0.994803
vt 0.917693 0.993721
vt 0.947759 0.616615
vt 0.897510 0.979125
vt 0.977825 0.797542
vt 0.897510 0.795089
vt 0.998008 0.795089
vt 0.977825 0.993721
vt 0.998008 0.979125
vt 0.500245 0.645528
vt 0.534990 0.754683
vt 0.530945 0.829565
vt 0.547034 0.826881
vt 0.447321 0.829565
vt 0.478021 0.645528
vt 0.482066 0.720410
vt 0.494110 0.648212
vt 0.068735 0.680085
vt 0.062556 0.759881
vt 0.039684 0.645528
vt 0.027369 0.645528
vt 0.033548 0.725324
vt 0.004497 0.759881
vt 0.105208 0.760282
vt 0.097273 0.680487
vt 0.113541 0.645528
vt 0.074870 0.725324
vt 0.082805 0.645528
vt 0.091138 0.760282
vn -0.710558 0.000000 0.703639
vn 0.000000 -0.104329 0.994543
vn -0.545287 0.413649 0.729080
vn 0.000000 0.535002 0.844851
vn 0.710558 0.000000 0.703639
vn 0.545287 0.413648 0.729080
vn 0.000000 0.919772 0.392454
vn -0.282408 0.935413 0.212718
vn 0.282408 0.935413 0.212718
vn 0.000000 0.969002 0.247054
vn -0.405681 0.858729 0.313061
vn 0.403984 0.860262 0.311040
vn -0.004277 0.961053 0.276333
vn -0.226445 0.972802 0.048777
vn 0.356679 0.914156 0.192612
vn 0.248996 0.936589 0.246582
vn 0.137280 0.987852 -0.072826
vn 0.000000 0.761944 -0.647643
vn -0.000000 0.372483 -0.928039
vn -0.472633 0.543192 -0.693946
vn -0.398431 -0.907552 -0.132676
vn 0.472633 0.543191 -0.693946
vn 0.398431 -0.907552 -0.132676
vn 0.337137 -0.565872 -0.752414
vn -0.000000 -0.990431 -0.138006
vn 0.065596 -0.997515 -0.025725
vn 0.000000 -0.996297 -0.085976
vn -0.337136 -0.565872 -0.752414
vn -0.065596 -0.997515 -0.025725
vn 0.348228 -0.908973 -0.229142
vn 0.000000 -0.999788 -0.020570
vn 0.129628 -0.990523 -0.045393
vn 0.000000 -0.999273 -0.038131
vn -0.348228 -0.908973 -0.229142
vn -0.129628 -0.990523 -0.045393
vn 0.066999 -0.996799 -0.043623
vn 0.000000 -0.997358 -0.072647
vn -0.066999 -0.996799 -0.043623
vn 0.531860 -0.812793 0.237682
vn 0.593861 -0.768458 0.238330
vn 0.541610 -0.806272 0.237872
vn 0.607215 -0.757964 0.238286
vn 0.851168 0.193226 0.488033
vn 0.733862 -0.148220 0.662931
vn 0.794696 -0.016083 0.606794
vn 0.724882 -0.164705 0.668894
vn 0.505117 0.818549 0.273560
vn 0.461612 0.845580 0.268160
vn 0.286766 0.927086 0.241406
vn 0.264385 0.934726 0.237461
vn 0.541983 0.728120 0.419637
vn 0.285736 0.950715 0.120398
vn 0.452723 0.836028 0.309999
vn 0.278214 0.953943 0.112202
vn -0.531860 -0.812793 0.237682
vn -0.541610 -0.806272 0.237872
vn -0.593861 -0.768458 0.238330
vn -0.607215 -0.757965 0.238286
vn -0.851168 0.193226 0.488033
vn -0.794696 -0.016083 0.606794
vn -0.733862 -0.148220 0.662931
vn -0.724882 -0.164705 0.668894
vn -0.505117 0.818549 0.273560
vn -0.286766 0.927086 0.241406
vn -0.461612 0.845580 0.268160
vn -0.264385 0.934726 0.237461
vn -0.541983 0.728120 0.419638
vn -0.452723 0.836028 0.310000
vn -0.285736 0.950715 0.120398
vn -0.278214 0.953943 0.112202
vn -0.004732 0.999980 0.004292
vn 0.986574 -0.087040 -0.138185
vn 0.161986 0.974620 -0.154517
vn 0.710961 0.240736 -0.660743
vn -0.002741 0.977131 -0.212623
vn -0.164472 0.447873 -0.878839
vn -0.986574 -0.087041 -0.138185
vn -0.710961 0.240736 -0.660743
vn -0.161986 0.974620 -0.154517
vn 0.002741 0.977131 -0.212623
vn 0.456778 -0.857442 -0.236952
vn 0.702361 -0.228773 -0.674056
vn -0.456778 -0.857442 -0.236951
vn -0.702361 -0.228773 -0.674056
vn -0.435511 0.891336 0.125896
vn -0.528413 0.835123 0.152806
vn -0.437408 0.890329 0.126446
vn -0.558019 0.813985 0.161382
vn 0.178575 0.429074 -0.885442
vn 0.976410 0.000000 -0.215924
vn 0.976360 -0.000748 -0.216149
vn 0.976237 -0.002549 -0.216689
vn 0.976223 -0.002752 -0.216750
vn -0.554139 -0.754049 0.352619
vn -0.578780 -0.734718 0.353840
vn -0.731194 -0.583840 0.352826
vn -0.828561 -0.444514 0.340432
vn 0.680961 -0.726508 -0.092080
vn 0.859893 -0.475279 -0.186262
vn 0.701341 -0.705548 -0.101596
vn 0.871007 -0.451605 -0.193389
vn 0.293765 -0.852559 -0.432255
vn 0.435511 0.891336 0.125897
vn 0.437409 0.890329 0.126446
vn 0.528413 0.835123 0.152806
vn 0.558019 0.813985 0.161382
vn -0.976410 0.000000 -0.215924
vn -0.976237 -0.002549 -0.216689
vn -0.976360 -0.000748 -0.216149
vn -0.976223 -0.002752 -0.216750
vn 0.554139 -0.754049 0.352619
vn 0.731195 -0.583839 0.352826
vn 0.578780 -0.734718 0.353840
vn 0.828562 -0.444513 0.340432
vn -0.293765 -0.852559 -0.432255
vn -0.680961 -0.726508 -0.092080
vn -0.701341 -0.705548 -0.101596
vn -0.859893 -0.475279 -0.186262
vn -0.871007 -0.451605 -0.193389
vn 0.613836 0.246088 -0.750097
vn 0.561454 0.000001 -0.827508
vn -0.533650 0.840129 -0.096962
vn -0.606355 0.769052 -0.202221
vn -0.555266 0.821951 -0.126791
vn -0.634813 0.731741 -0.248129
vn -0.102337 0.982599 -0.155006
vn -0.052289 0.995486 -0.079201
vn -0.062390 0.993568 -0.094500
vn 0.000000 1.000000 0.000000
vn 0.359044 -0.787343 -0.501176
vn 0.370585 -0.751225 -0.546194
vn 0.000000 -1.000000 0.000000
vn 0.000000 -1.000000 -0.000000
vn 0.000000 -1.000000 -0.000000
vn 0.000000 -1.000000 -0.000000
vn -0.385173 -0.922118 -0.036613
vn -0.410246 -0.910259 -0.055916
vn -0.579781 -0.790932 -0.195653
vn -0.639374 -0.727149 -0.249912
vn -0.613836 0.246088 -0.750098
vn -0.561454 0.000001 -0.827508
vn 0.102337 0.982599 -0.155006
vn 0.062390 0.993568 -0.094500
vn 0.052289 0.995486 -0.079201
vn 0.000000 1.000000 0.000000
vn 0.533650 0.840129 -0.096962
vn 0.555266 0.821951 -0.126791
vn 0.606355 0.769052 -0.202221
vn 0.634813 0.731741 -0.248129
vn -0.359044 -0.787343 -0.501176
vn -0.370585 -0.751225 -0.546194
vn 0.385173 -0.922118 -0.036613
vn 0.579781 -0.790932 -0.195653
vn 0.410245 -0.910259 -0.055916
vn 0.639374 -0.727149 -0.249912
vn 0.000000 -1.000000 0.000000
vn 0.000000 -1.000000 -0.000000
vn 0.000000 -1.000000 -0.000000
vn 0.000000 -1.000000 -0.000000
vn -0.000000 -0.962194 0.272365
vn -0.715154 -0.598522 -0.361007
vn -0.257183 -0.963495 -0.074396
vn 0.303240 -0.873092 0.381779
vn -0.095127 0.000000 0.995465
vn -0.016819 0.091939 0.995623
vn 0.019190 0.133672 0.990840
vn 0.082256 0.205937 0.975102
vn 0.179280 0.978528 0.101697
vn 0.293801 0.941469 0.165277
vn 0.492781 0.849501 0.188455
vn -0.375112 0.829745 0.413297
vn 0.609815 0.659024 0.440242
vn 0.785284 0.275803 -0.554312
vn 0.537405 0.743444 -0.398104
vn 0.767134 0.269389 -0.582182
vn 0.515316 0.568327 -0.641446
vn 0.049956 0.991918 -0.116635
vn -0.677216 -0.563740 -0.472838
vn 0.688302 -0.522995 -0.502710
vn 0.685689 -0.412834 -0.599498
vn 0.715154 -0.598522 -0.361007
vn 0.257183 -0.963495 -0.074396
vn -0.303240 -0.873092 0.381779
vn 0.095127 0.000000 0.995465
vn -0.019190 0.133672 0.990840
vn 0.016819 0.091939 0.995623
vn -0.082256 0.205937 0.975102
vn -0.287180 0.942351 0.171764
vn -0.179280 0.978528 0.101697
vn 0.375112 0.829745 0.413297
vn -0.609815 0.659024 0.440242
vn -0.492781 0.849501 0.188455
vn -0.049956 0.991918 -0.116635
vn -0.785285 0.275802 -0.554312
vn -0.767134 0.269389 -0.582181
vn -0.537405 0.743444 -0.398104
vn -0.515317 0.568326 -0.641446
vn -0.688301 -0.522997 -0.502708
vn -0.685691 -0.412831 -0.599498
vn 0.677216 -0.563740 -0.472838
vn -0.674195 0.738436 0.013162
vn -0.681156 0.730754 -0.045013
vn -0.124271 0.990318 0.061857
vn -0.092125 0.993144 0.071958
vn -0.118846 0.990876 0.063570
vn -0.086640 0.993512 0.073670
vn 0.579285 0.814684 0.026806
vn 0.636816 0.771016 -0.000225
vn 0.714018 0.699001 -0.039696
vn 0.732155 0.679328 -0.049625
vn -0.739577 -0.669065 0.073326
vn -0.741791 -0.669108 0.045176
vn 0.871125 -0.490792 -0.016271
vn 0.845477 -0.533861 0.012691
vn 0.860319 -0.509743 -0.003670
vn 0.821294 -0.569276 0.037425
vn -0.827631 -0.558936 0.051164
vn 0.674193 0.738438 0.013161
vn 0.681154 0.730755 -0.045014
vn -0.579284 0.814685 0.026806
vn -0.714017 0.699002 -0.039695
vn -0.636815 0.771017 -0.000224
vn -0.732155 0.679328 -0.049625
vn 0.124271 0.990318 0.061857
vn 0.118846 0.990876 0.063570
vn 0.092125 0.993144 0.071958
vn 0.086640 0.993512 0.073670
vn 0.739577 -0.669066 0.073325
vn 0.741790 -0.669109 0.045175
vn 0.827629 -0.558939 0.051163
vn -0.871125 -0.490791 -0.016270
vn -0.860319 -0.509742 -0.003669
vn -0.845477 -0.533861 0.012691
vn -0.821295 -0.569275 0.037426
vn 0.000000 0.875489 0.483237
vn 0.000000 0.077738 0.996974
vn 0.067096 0.959624 0.273166
vn 0.014906 0.443001 0.896397
vn -0.067096 0.959624 0.273166
vn -0.014906 0.443001 0.896397
vn -0.096162 -0.083600 0.991849
vn 0.000000 -0.176046 0.984382
vn 0.096162 -0.083600 0.991849
vn -0.592340 0.794707 -0.132569
vn -0.000000 0.963480 -0.267779
vn -0.427389 0.863919 -0.266426
vn -0.000000 0.953163 -0.302456
vn 0.592340 0.794707 -0.132569
vn 0.427389 0.863919 -0.266426
vn -0.395280 0.877325 -0.272129
vn 0.000000 0.803783 -0.594922
vn -0.698816 0.665866 -0.261302
vn 0.698816 0.665866 -0.261302
vn -0.000000 0.749853 -0.661605
vn -0.000000 0.428273 -0.903650
vn -0.592320 -0.777930 0.209720
vn 0.000000 -0.962824 0.270129
vn -0.000000 -0.976098 0.217333
vn -0.549257 -0.805004 0.224245
vn -0.213523 -0.956352 0.199495
vn 0.549257 -0.805004 0.224245
vn 0.213523 -0.956352 0.199495
vn 0.342983 -0.919548 0.191817
vn 0.578558 -0.804094 0.136763
vn 0.558040 -0.812514 0.168560
vn 0.634114 -0.762701 0.127230
vn 0.992787 0.118260 -0.019728
vn 0.992787 0.118260 -0.019728
vn -0.342983 -0.919548 0.191817
vn -0.558040 -0.812514 0.168560
vn -0.578558 -0.804094 0.136763
vn -0.634114 -0.762701 0.127230
vn -0.992787 0.118260 -0.019728
vn -0.992787 0.118260 -0.019728
vn 0.395280 0.877325 -0.272129
vn 0.592320 -0.777930 0.209720
s 1
g pCube3
usemtl initialShadingGroup
f 1/183/1 2/180/2 4/182/3
f 4/182/3 2/180/2 5/181/4
f 3/176/5 6/178/6 2/180/2
f 2/180/2 6/178/6 5/181/4
f 5/1/4 8/2/7 4/3/3
f 4/5/3 8/6/7 7/7/8
f 5/1/4 6/4/6 8/2/7
f 8/8/7 6/9/6 9/10/9
f 8/11/7 11/12/10 7/13/8
f 7/13/8 11/12/10 10/15/11
f 8/11/7 9/14/9 11/12/10
f 11/12/10 9/14/9 12/16/12
f 11/12/10 14/17/13 10/15/11
f 10/15/11 14/17/13 13/20/14
f 115/25/15 116/31/16 15/37/17
f 56/65/18 57/66/19 55/67/20
f 55/67/20 57/66/19 58/69/21
f 56/65/18 59/68/22 57/66/19
f 57/66/19 59/68/22 60/72/23
f 25/76/24 24/77/25 29/78/26
f 29/78/26 24/77/25 28/80/27
f 27/83/28 30/84/29 24/77/25
f 24/77/25 30/84/29 28/80/27
f 16/89/30 17/85/31 19/93/32
f 19/93/32 17/85/31 20/99/33
f 18/92/34 21/98/35 17/85/31
f 17/85/31 21/98/35 20/99/33
f 19/93/32 20/99/33 1/106/36
f 1/106/36 20/99/33 2/112/37
f 21/98/35 3/111/38 20/99/33
f 20/99/33 3/111/38 2/112/37
s 7
f 62/110/39 61/104/40 64/117/41
f 64/117/41 61/104/40 63/116/42
s 8
f 65/120/43 62/121/44 66/122/45
f 66/122/45 62/121/44 64/123/46
s 9
f 63/36/47 67/24/48 64/30/49
f 64/30/49 67/24/48 68/19/50
s 10
f 66/29/51 64/30/52 69/23/53
f 64/30/52 68/19/54 69/23/53
s 11
f 74/107/55 75/113/56 73/100/57
f 73/100/57 75/113/56 76/114/58
s 12
f 77/124/59 78/125/60 74/126/61
f 74/126/61 78/125/60 75/127/62
s 13
f 76/33/63 75/27/64 80/21/65
f 80/21/65 75/27/64 79/18/66
s 14
f 78/28/67 81/22/68 75/27/69
f 75/27/69 81/22/68 79/18/70
s 1
f 13/20/14 14/17/13 23/26/71
f 32/51/72 31/38/73 34/57/74
f 34/232/74 31/233/73 33/234/75
f 15/37/17 26/40/76 115/25/15
f 23/73/71 115/75/15 26/71/76
f 38/60/77 39/61/78 37/45/79
f 37/235/79 39/236/78 40/237/80
f 16/89/30 29/78/26 17/85/31
f 17/85/31 29/78/26 28/80/27
f 32/128/72 34/129/74 35/130/81
f 35/238/81 34/239/74 36/240/82
f 38/135/77 41/136/83 39/137/78
f 39/241/78 41/242/83 42/243/84
f 18/92/34 17/85/31 30/84/29
f 30/84/29 17/85/31 28/80/27
s 17
f 80/21/85 82/32/86 76/33/87
f 76/33/87 82/32/86 83/43/88
s 1
f 22/48/89 33/42/75 13/20/14
f 13/20/14 33/42/75 31/38/73
s 18
f 43/142/90 44/143/91 46/144/92
f 46/144/92 44/143/91 45/146/93
s 19
f 73/100/94 76/114/95 84/101/96
f 84/149/96 76/150/95 83/151/97
s 20
f 47/81/98 48/90/99 44/87/100
f 44/143/100 48/148/99 45/146/101
s 1
f 29/78/26 16/89/30 36/86/102
f 36/86/102 16/89/30 35/94/81
s 21
f 67/24/103 63/36/104 71/39/105
f 71/39/105 63/36/104 70/44/106
s 22
f 49/155/107 51/156/108 50/157/109
f 50/157/109 51/156/108 52/158/110
s 1
f 26/40/76 15/37/17 40/46/80
f 40/46/80 15/37/17 37/45/79
s 23
f 61/104/111 72/109/112 63/116/113
f 63/162/113 72/163/112 70/164/114
s 1
f 30/84/29 42/97/115 18/92/34
f 18/92/34 42/97/115 41/105/83
s 24
f 53/91/116 50/96/117 54/103/118
f 54/160/118 50/157/117 52/158/119
s 1
f 22/147/89 25/145/24 43/142/120
f 43/142/120 25/145/24 44/143/121
s 26
f 33/42/122 46/59/123 34/57/124
f 34/57/124 46/59/123 45/64/125
s 27
f 22/48/126 43/53/127 33/42/128
f 33/42/128 43/53/127 46/59/129
s 1
f 29/78/26 47/81/130 25/76/24
f 25/76/24 47/81/130 44/87/131
s 28
f 29/78/132 36/86/133 47/81/134
f 47/81/134 36/86/133 48/90/135
s 29
f 36/86/136 34/95/137 48/90/138
f 48/90/138 34/95/137 45/102/139
s 1
f 26/161/76 49/155/140 27/159/28
f 27/159/28 49/155/140 50/157/141
s 31
f 26/40/142 40/46/143 49/50/144
f 49/50/144 40/46/143 51/56/145
s 32
f 40/46/146 39/61/147 51/56/148
f 51/56/148 39/61/147 52/63/149
s 1
f 30/84/29 27/83/28 53/91/150
f 53/91/150 27/83/28 50/96/151
s 33
f 42/97/152 54/103/153 39/108/154
f 39/108/154 54/103/153 52/115/155
s 34
f 30/84/156 53/91/157 42/97/158
f 42/97/158 53/91/157 54/103/159
s 1
f 23/73/71 56/65/18 22/70/89
f 22/70/89 56/65/18 55/67/20
f 24/77/25 25/76/24 57/79/160
f 57/79/160 25/76/24 58/82/21
f 22/168/89 55/169/20 25/170/24
f 25/170/24 55/169/20 58/171/21
f 23/73/71 26/71/76 56/65/18
f 56/65/18 26/71/76 59/68/22
f 26/172/76 27/173/28 59/174/22
f 59/174/22 27/173/28 60/175/23
f 24/77/25 57/79/160 27/83/28
f 27/83/28 57/79/160 60/88/23
f 18/92/34 61/104/161 21/98/35
f 21/98/35 61/104/161 62/110/162
f 21/98/35 62/110/162 3/111/38
f 3/111/38 62/110/162 65/119/163
s 36
f 3/176/164 65/177/165 6/178/166
f 6/178/166 65/177/165 66/179/167
s 1
f 68/19/168 67/24/169 12/16/12
f 15/37/17 116/31/16 67/24/169
f 116/31/16 12/16/12 67/24/169
f 12/16/12 9/14/9 68/19/168
f 68/19/168 9/14/9 69/23/170
f 6/35/6 66/29/171 9/14/9
f 9/14/9 66/29/171 69/23/172
s 38
f 86/62/173 85/55/174 88/54/175
f 88/54/175 85/55/174 87/49/176
s 1
f 37/45/79 15/37/17 71/39/177
f 71/39/177 15/37/17 67/24/169
f 41/105/83 72/109/178 18/92/34
f 18/92/34 72/109/178 61/104/161
s 38
f 86/139/173 88/141/175 89/138/179
f 89/167/179 88/166/175 90/165/180
s 1
f 16/89/30 19/93/32 73/100/181
f 73/100/181 19/93/32 74/107/182
f 19/93/32 1/106/36 74/107/182
f 74/107/182 1/106/36 77/118/183
s 40
f 1/183/184 4/182/185 77/184/186
f 77/184/186 4/182/185 78/185/187
s 1
f 13/20/14 80/21/188 10/15/11
f 10/15/11 80/21/188 79/18/189
f 4/34/3 7/13/8 78/28/190
f 78/28/190 7/13/8 81/22/191
f 10/15/11 79/18/189 7/13/8
f 7/13/8 79/18/189 81/22/192
f 31/38/73 82/32/193 13/20/14
f 13/20/14 82/32/193 80/21/188
s 41
f 92/58/194 93/52/195 91/47/196
f 91/47/196 93/52/195 94/41/197
f 92/133/194 95/131/198 93/134/195
f 93/153/195 95/154/198 96/152/199
s 1
f 35/94/81 16/89/30 84/101/200
f 84/101/200 16/89/30 73/100/181
f 37/45/79 85/55/201 38/60/77
f 38/60/77 85/55/201 86/62/202
s 42
f 71/39/203 87/49/204 37/45/205
f 37/45/205 87/49/204 85/55/206
s 43
f 71/39/207 70/44/208 87/49/209
f 87/49/209 70/44/208 88/54/210
s 1
f 41/136/83 38/135/77 89/138/211
f 89/138/211 38/135/77 86/139/212
s 44
f 72/163/213 90/165/214 70/164/215
f 70/164/215 90/165/214 88/166/216
s 1
f 72/186/178 41/187/83 90/188/217
f 90/140/217 41/136/83 89/138/211
f 31/38/73 32/51/72 91/47/218
f 91/47/218 32/51/72 92/58/219
s 45
f 82/32/220 94/41/221 83/43/222
f 83/43/222 94/41/221 93/52/223
s 46
f 82/32/224 31/38/225 94/41/226
f 94/41/226 31/38/225 91/47/227
s 1
f 35/130/81 95/131/228 32/128/72
f 32/128/72 95/131/228 92/133/229
f 84/189/200 96/190/230 35/191/81
f 35/130/81 96/132/230 95/131/228
s 47
f 84/149/231 83/151/232 96/152/233
f 96/152/233 83/151/232 93/153/234
s 48
f 98/192/235 101/193/236 97/194/237
f 97/194/237 101/193/236 100/196/238
f 98/192/235 99/195/239 101/193/236
f 101/193/236 99/195/239 102/197/240
f 100/198/238 101/199/236 103/200/241
f 103/200/241 101/199/236 104/201/242
f 102/203/240 105/202/243 101/199/236
f 101/199/236 105/202/243 104/201/242
s 49
f 103/207/244 104/205/245 106/204/246
f 106/204/246 104/205/245 107/206/247
f 105/210/248 108/208/249 104/205/245
f 104/205/245 108/208/249 107/206/247
s 50
f 106/204/250 107/206/251 109/209/252
f 107/206/251 111/211/253 110/212/254
f 109/220/252 113/217/255 112/214/256
f 110/212/254 111/211/253 113/213/255
s 53
f 113/217/257 98/215/258 112/214/259
f 112/214/259 98/215/258 97/216/260
f 113/217/257 114/219/261 98/215/258
f 98/215/258 114/219/261 99/222/262
s 54
f 99/222/263 114/219/264 102/223/265
f 102/223/265 114/219/264 111/221/266
f 111/224/266 108/225/267 102/226/265
f 102/226/265 108/225/267 105/227/268
s 55
f 97/216/269 100/218/270 112/214/271
f 112/214/271 100/218/270 109/220/272
f 109/228/272 100/229/270 106/230/273
f 106/230/273 100/229/270 103/231/274
s 1
f 13/74/14 23/73/71 22/70/89
f 14/17/13 115/25/15 23/26/71
f 116/31/16 115/25/15 12/16/12
f 115/25/15 14/17/13 12/16/12
f 11/12/10 12/16/12 14/17/13
s 50
f 109/209/252 107/206/251 110/212/254
f 107/206/251 108/208/275 111/211/253
f 109/209/252 110/212/254 113/213/255
f 113/217/255 111/221/253 114/219/276
